# xmcd CD database file
#
# Track frame offsets:
#	150
#	21042
#	35032
#	53624
#	77583
#	100040
#	119767
#	137569
#	154241
#	171208
#	182138
#	203086
#	220706
#
# Disc length: 3122 seconds
#
# Revision: 0
# Processed by: cddbd v1.5.2PL0 Copyright (c) Steve Scherf et al.
# Submitted via: CDex 1.51
#
DISCID=ac0c300d
DTITLE=Sampler - Blues From A Smoky Bar  CD 2
DYEAR=2015
DGENRE=Blues
TTITLE0=Geoff Achison and The Souldiggers - Boy
TTITLE1=John Lee Hooker - My Baby She`s Long And Tall
TTITLE2=Rudy Rotta feat. Robben Ford - It`s All Over Now Baby Blue
TTITLE3=Bob Dylan - House Of The Risin' Sun
TTITLE4=Timo Gross - Travellin Man
TTITLE5=Willie Logan - II0
TTITLE6=Marla Glen - White Roses For My Mother
TTITLE7=Dr. Will - She Don`t Hurt
TTITLE8=Mark Selby - Moon Over My Shoulder
TTITLE9=Howlin Wolf - Wang Dang Doodle
TTITLE10=John CampbellJohn - Good To Go
TTITLE11=Ines Sibun - East Monroe
TTITLE12=Etta James - At Last
EXTD=YEAR: 2015
EXTT0=
EXTT1=
EXTT2=
EXTT3=
EXTT4=
EXTT5=
EXTT6=
EXTT7=
EXTT8=
EXTT9=
EXTT10=
EXTT11=
EXTT12=
PLAYORDER=
